<svg height="583" viewBox="0 0 866 583" width="866" xmlns="http://www.w3.org/2000/svg"><g fill="none" fill-rule="evenodd"><g transform="matrix(.98480775 -.17364818 .17364818 .98480775 0 138.918542)"><rect fill="#6db543" height="450" rx="10" width="800"/><g stroke="#fff" stroke-width="2"><path d="m13 13h774v424h-774z"/><path d="m13 126h98v198h-98z"/><path d="m689 126h98v198h-98z"/><path d="m400.5 14v423" stroke-linecap="square"/><circle cx="400" cy="225" r="49"/><path d="m13 186h48v78h-48z"/><path d="m739 186h48v78h-48z"/></g><circle cx="87.5" cy="225.5" fill="#fff" r="2.5"/><circle cx="400.5" cy="225.5" fill="#fff" r="2.5"/><circle cx="712.5" cy="225.5" fill="#fff" r="2.5"/></g><g transform="translate(66 323)"><circle cx="25" cy="25" fill="#141414" r="24" stroke="#fbd078" stroke-width="2"/><text fill="#f7e8a3" font-family="DELIRIUMNEONNCV, DELIRIUM NEON NCV" font-size="40"><tspan x="17" y="39">51</tspan></text></g><g opacity=".92" transform="translate(143 173)"><circle cx="25" cy="25" fill="#141414" r="24" stroke="#fbd078" stroke-width="2"/><text fill="#f7e8a3" font-family="DELIRIUMNEONNCV, DELIRIUM NEON NCV" font-size="40"><tspan x="15" y="39">92</tspan></text></g><g opacity=".92" transform="translate(218 298)"><circle cx="25" cy="25" fill="#141414" r="24" stroke="#fbd078" stroke-width="2"/><text fill="#f7e8a3" font-family="DELIRIUMNEONNCV, DELIRIUM NEON NCV" font-size="40"><tspan x="15" y="39">26</tspan></text></g><g opacity=".92" transform="translate(259 224)"><circle cx="25" cy="25" fill="#141414" r="24" stroke="#fbd078" stroke-width="2"/><text fill="#f7e8a3" font-family="DELIRIUMNEONNCV, DELIRIUM NEON NCV" font-size="40"><tspan x="17" y="39">12</tspan></text></g><g opacity=".92" transform="translate(325 173)"><circle cx="25" cy="25" fill="#141414" r="24" stroke="#fbd078" stroke-width="2"/><text fill="#f7e8a3" font-family="DELIRIUMNEONNCV, DELIRIUM NEON NCV" font-size="40"><tspan x="15" y="39">29</tspan></text></g><g opacity=".92" transform="translate(383 272)"><circle cx="25" cy="25" fill="#141414" r="24" stroke="#fbd078" stroke-width="2"/><text fill="#f7e8a3" font-family="DELIRIUMNEONNCV, DELIRIUM NEON NCV" font-size="40"><tspan x="20" y="39">9</tspan></text></g><g opacity=".92" transform="translate(361 373)"><circle cx="25" cy="25" fill="#141414" r="24" stroke="#fbd078" stroke-width="2"/><text fill="#f7e8a3" font-family="DELIRIUMNEONNCV, DELIRIUM NEON NCV" font-size="40"><tspan x="17" y="39">10</tspan></text></g><g opacity=".92" transform="translate(284 333)"><circle cx="25" cy="25" fill="#141414" r="24" stroke="#fbd078" stroke-width="2"/><text fill="#f7e8a3" font-family="DELIRIUMNEONNCV, DELIRIUM NEON NCV" font-size="40"><tspan x="17" y="39">77</tspan></text></g><g opacity=".92" transform="translate(125 260)"><circle cx="25" cy="25" fill="#434343" r="24" stroke="#fbd078" stroke-width="2"/><text fill="#f7e8a3" font-family="DELIRIUMNEONNCV, DELIRIUM NEON NCV" font-size="40"><tspan x="17" y="39">IA</tspan></text></g><g opacity=".92" transform="translate(143 358)"><circle cx="25" cy="25" fill="#434343" r="24" stroke="#fbd078" stroke-width="2"/><text fill="#f7e8a3" font-family="DELIRIUMNEONNCV, DELIRIUM NEON NCV" font-size="40"><tspan x="17" y="39">IA</tspan></text></g><g opacity=".92" transform="translate(193 432)"><circle cx="25" cy="25" fill="#434343" r="24" stroke="#fbd078" stroke-width="2"/><text fill="#f7e8a3" font-family="DELIRIUMNEONNCV, DELIRIUM NEON NCV" font-size="40"><tspan x="17" y="39">IA</tspan></text></g><g transform="translate(749 205)"><circle cx="25" cy="25" fill="#141414" r="24" stroke="#da3947" stroke-width="2"/><text fill="#da3947" font-family="DELIRIUMNEONNCV, DELIRIUM NEON NCV" font-size="40"><tspan x="14" y="39">69</tspan></text></g><g opacity=".92" transform="translate(697 358)"><circle cx="25" cy="25" fill="#141414" r="24" stroke="#da3947" stroke-width="2"/><text fill="#da3947" font-family="DELIRIUMNEONNCV, DELIRIUM NEON NCV" font-size="40"><tspan x="21" y="39">7</tspan></text></g><g opacity=".92" transform="translate(531 235)"><circle cx="25" cy="25" fill="#141414" r="24" stroke="#da3947" stroke-width="2"/><text fill="#da3947" font-family="DELIRIUMNEONNCV, DELIRIUM NEON NCV" font-size="40"><tspan x="15" y="39">30</tspan></text></g><g opacity=".92" transform="translate(566 167)"><circle cx="25" cy="25" fill="#141414" r="24" stroke="#da3947" stroke-width="2"/><text fill="#da3947" font-family="DELIRIUMNEONNCV, DELIRIUM NEON NCV" font-size="40"><tspan x="20" y="39">2</tspan></text></g><g opacity=".92" transform="translate(439 155)"><circle cx="25" cy="25" fill="#141414" r="24" stroke="#da3947" stroke-width="2"/><text fill="#da3947" font-family="DELIRIUMNEONNCV, DELIRIUM NEON NCV" font-size="40"><tspan x="15" y="39">78</tspan></text></g><g opacity=".92" transform="translate(434 260)"><circle cx="25" cy="25" fill="#141414" r="24" stroke="#da3947" stroke-width="2"/><text fill="#da3947" font-family="DELIRIUMNEONNCV, DELIRIUM NEON NCV" font-size="40" opacity=".8"><tspan x="20" y="39">9</tspan></text></g><g opacity=".92" transform="translate(493 348)"><circle cx="25" cy="25" fill="#141414" r="24" stroke="#da3947" stroke-width="2"/><text fill="#da3947" font-family="DELIRIUMNEONNCV, DELIRIUM NEON NCV" font-size="40"><tspan x="17" y="39">10</tspan></text></g><g opacity=".92" transform="translate(591 280)"><circle cx="25" cy="25" fill="#141414" r="24" stroke="#da3947" stroke-width="2"/><text fill="#da3947" font-family="DELIRIUMNEONNCV, DELIRIUM NEON NCV" font-size="40"><tspan x="14" y="39">93</tspan></text></g><g opacity=".92" transform="translate(672 173)"><circle cx="25" cy="25" fill="#434343" r="24" stroke="#da3947" stroke-width="2"/><text fill="#da3947" font-family="DELIRIUMNEONNCV, DELIRIUM NEON NCV" font-size="40"><tspan x="17" y="39">IA</tspan></text></g><g opacity=".92" transform="translate(689 255)"><circle cx="25" cy="25" fill="#434343" r="24" stroke="#da3947" stroke-width="2"/><text fill="#da3947" font-family="DELIRIUMNEONNCV, DELIRIUM NEON NCV" font-size="40"><tspan x="17" y="39">IA</tspan></text></g><g opacity=".92" transform="translate(622 91)"><circle cx="25" cy="25" fill="#434343" r="24" stroke="#da3947" stroke-width="2"/><text fill="#da3947" font-family="DELIRIUMNEONNCV, DELIRIUM NEON NCV" font-size="40"><tspan x="17" y="39">IA</tspan></text></g></g></svg>