<svg height="583" viewBox="0 0 866 583" width="866" xmlns="http://www.w3.org/2000/svg"><g fill="none" fill-rule="evenodd"><g transform="matrix(.98480775 -.17364818 .17364818 .98480775 0 138.918542)"><rect fill="#6db543" height="450" rx="10" width="800"/><g stroke="#fff" stroke-width="2"><path d="m13 13h774v424h-774z"/><path d="m13 126h98v198h-98z"/><path d="m689 126h98v198h-98z"/><path d="m400.5 14v423" stroke-linecap="square"/><circle cx="400" cy="225" r="49"/><path d="m13 186h48v78h-48z"/><path d="m739 186h48v78h-48z"/></g><circle cx="87.5" cy="225.5" fill="#fff" r="2.5"/><circle cx="400.5" cy="225.5" fill="#fff" r="2.5"/><circle cx="712.5" cy="225.5" fill="#fff" r="2.5"/></g><g transform="translate(66 323)"><circle cx="25" cy="25" fill="#141414" r="24" stroke="#fbd078" stroke-width="2"/><path d="m23.28 39c.8533333 0 1.52-.1933333 2-.58s.72-1.0066667.72-1.86v-12.6c0-1.3866667-.68-2.08-2.04-2.08h-2.68v-9.16h4.6v-2.84h-7.76v13.96l.64.68h3.48c.24 0 .4.0333333.48.1s.12.2333333.12.5v11.04h-1.68v-6.6h-3.16v7c0 .8533333.24 1.4733333.72 1.86s1.1466667.58 2 .58zm-.24-1.32h-2.08c-.6133333 0-1.0333333-.1266667-1.26-.38s-.34-.6866667-.34-1.3v-5.24h.4v5.24c0 .4533333.0866667.78.26.98s.4866667.3.94.3h2.08c.4533333 0 .7666667-.1.94-.3s.26-.5266667.26-.98v-11.48c0-.4533333-.0733333-.76-.22-.92s-.4466667-.24-.9-.24h-3.6v-12.28h5.16v.4h-4.76v11.48h3.2c.6133333 0 1.02.1066667 1.22.32s.3.6266667.3 1.24v11.48c0 .6133333-.1133333 1.0466667-.34 1.3s-.6466667.38-1.26.38zm9.2 1.32v-29.12h-4.64v2.84h1.48v26.28zm-1.4-1.2h-.4v-26.28h-1.64v-.4h2.04z" fill="#f7e8a3" fill-rule="nonzero"/></g><g opacity=".92" transform="translate(143 173)"><circle cx="25" cy="25" fill="#141414" r="24" stroke="#fbd078" stroke-width="2"/><path d="m21.72 39c.8533333 0 1.52-.2533333 2-.76s.72-1.16.72-1.96v-23.68c0-.8533333-.24-1.52-.72-2s-1.1466667-.72-2-.72h-2.8c-.8533333 0-1.52.24-2 .72s-.72 1.1466667-.72 2v11.92c0 1.6533333.8266667 2.48 2.48 2.48h2.6v9.16h-1.92v-6.6h-3.16v6.72c0 .8.24 1.4533333.72 1.96s1.1466667.76 2 .76zm-.24-1.32h-2.32c-.6133333 0-1.0333333-.1266667-1.26-.38s-.34-.6866667-.34-1.3v-5.24h.4v5.24c0 .4533333.0866667.78.26.98s.4866667.3.94.3h2.32c.4533333 0 .7666667-.0933333.94-.28s.26-.5066667.26-.96v-10.28h-3.52c-.56 0-.96-.12-1.2-.36s-.36-.64-.36-1.2v-11.44c0-.6133333.1133333-1.0466667.34-1.3s.6466667-.38 1.26-.38h2.28c.6133333 0 1.0333333.12 1.26.36s.34.6666667.34 1.28v23.32c0 .6133333-.1133333 1.04-.34 1.28s-.6466667.36-1.26.36zm1.2-12.32v-12.64c0-.4533333-.0866667-.7733333-.26-.96s-.4866667-.28-.94-.28h-2.28c-.4533333 0-.7666667.1-.94.3s-.26.5266667-.26.98v11.44c0 .7733333.3866667 1.16 1.16 1.16zm-1.4-1.2h-1.92v-11.44h1.92zm13.48 14.84v-9.44h-3.16v6.6h-1.8v-6.6c0-.24.0266667-.44.08-.6s.1466667-.3466667.28-.56l4.16-6.96c.2133333-.3733333.34-.6933333.38-.96s.06-.56.06-.88v-7.28c0-.8533333-.24-1.4733333-.72-1.86s-1.1466667-.58-2-.58h-2.68c-.8533333 0-1.52.1933333-2 .58s-.72 1.0066667-.72 1.86v7h3.16v-6.6h1.8v6.6c0 .24-.0333333.4466667-.1.62s-.1533333.3533333-.26.54l-3.92 6.56c-.16.24-.28.4533333-.36.64s-.1466667.3733333-.2.56-.0866667.4-.1.64-.02.5333333-.02.88v9.24zm-1.4-1.32h-5.4v-7.92c0-.4533333.0466667-.84.14-1.16s.26-.6666667.5-1.04l4.04-6.76c.1333333-.2133333.2266667-.4533333.28-.72s.08-.56.08-.88v-6.36c0-.4533333-.0866667-.7733333-.26-.96s-.4866667-.28-.94-.28h-2.2c-.4533333 0-.7666667.1-.94.3s-.26.5266667-.26.98v5.24h-.4v-5.24c0-.6133333.1133333-1.0466667.34-1.3s.6466667-.38 1.26-.38h2.2c.6133333 0 1.0333333.12 1.26.36s.34.6666667.34 1.28v6.4c0 .2933333-.02.5866667-.06.88s-.1266667.5466667-.26.76l-4.16 6.92c-.2133333.3466667-.36.66-.44.94s-.12.62-.12 1.02v7.52h4.6v-6.52h.4z" fill="#f7e8a3" fill-rule="nonzero"/></g><g opacity=".92" transform="translate(218 298)"><circle cx="25" cy="25" fill="#141414" r="24" stroke="#fbd078" stroke-width="2"/><path d="m24.12 39v-9.44h-3.16v6.6h-1.8v-6.6c0-.24.0266667-.44.08-.6s.1466667-.3466667.28-.56l4.16-6.96c.2133333-.3733333.34-.6933333.38-.96s.06-.56.06-.88v-7.28c0-.8533333-.24-1.4733333-.72-1.86s-1.1466667-.58-2-.58h-2.68c-.8533333 0-1.52.1933333-2 .58s-.72 1.0066667-.72 1.86v7h3.16v-6.6h1.8v6.6c0 .24-.0333333.4466667-.1.62s-.1533333.3533333-.26.54l-3.92 6.56c-.16.24-.28.4533333-.36.64s-.1466667.3733333-.2.56-.0866667.4-.1.64-.02.5333333-.02.88v9.24zm-1.4-1.32h-5.4v-7.92c0-.4533333.0466667-.84.14-1.16s.26-.6666667.5-1.04l4.04-6.76c.1333333-.2133333.2266667-.4533333.28-.72s.08-.56.08-.88v-6.36c0-.4533333-.0866667-.7733333-.26-.96s-.4866667-.28-.94-.28h-2.2c-.4533333 0-.7666667.1-.94.3s-.26.5266667-.26.98v5.24h-.4v-5.24c0-.6133333.1133333-1.0466667.34-1.3s.6466667-.38 1.26-.38h2.2c.6133333 0 1.0333333.12 1.26.36s.34.6666667.34 1.28v6.4c0 .2933333-.02.5866667-.06.88s-.1266667.5466667-.26.76l-4.16 6.92c-.2133333.3466667-.36.66-.44.94s-.12.62-.12 1.02v7.52h4.6v-6.52h.4zm9.12 1.32c.8533333 0 1.52-.24 2-.72s.72-1.1466667.72-2v-11.92c0-1.6533333-.8266667-2.48-2.48-2.48h-2.6v-9.16h1.92v6.6h3.16v-6.72c0-.8-.24-1.4533333-.72-1.96s-1.1466667-.76-2-.76h-2.8c-.8533333 0-1.52.2533333-2 .76s-.72 1.16-.72 1.96v23.68c0 .8533333.24 1.52.72 2s1.1466667.72 2 .72zm-.28-1.2h-2.28c-.6133333 0-1.0333333-.12-1.26-.36s-.34-.6666667-.34-1.28v-23.32c0-.6133333.1133333-1.04.34-1.28s.6466667-.36 1.26-.36h2.32c.6133333 0 1.0333333.1266667 1.26.38s.34.6866667.34 1.3v5.24h-.4v-5.24c0-.4533333-.0866667-.78-.26-.98s-.4866667-.3-.94-.3h-2.32c-.4533333 0-.7666667.0933333-.94.28s-.26.5066667-.26.96v10.28h3.52c.56 0 .96.12 1.2.36s.36.64.36 1.2v11.44c0 .6133333-.1133333 1.0466667-.34 1.3s-.6466667.38-1.26.38zm0-.4c.4533333 0 .7666667-.1.94-.3s.26-.5266667.26-.98v-11.44c0-.7733333-.3866667-1.16-1.16-1.16h-3.52v12.64c0 .4533333.0866667.7733333.26.96s.4866667.28.94.28zm-.16-1.24h-1.92v-11.44h1.92z" fill="#f7e8a3" fill-rule="nonzero"/></g><g opacity=".92" transform="translate(259 224)"><circle cx="25" cy="25" fill="#141414" r="24" stroke="#fbd078" stroke-width="2"/><path d="m22.24 39v-29.12h-4.64v2.84h1.48v26.28zm-1.4-1.2h-.4v-26.28h-1.64v-.4h2.04zm11.72 1.2v-9.44h-3.16v6.6h-1.8v-6.6c0-.24.0266667-.44.08-.6s.1466667-.3466667.28-.56l4.16-6.96c.2133333-.3733333.34-.6933333.38-.96s.06-.56.06-.88v-7.28c0-.8533333-.24-1.4733333-.72-1.86s-1.1466667-.58-2-.58h-2.68c-.8533333 0-1.52.1933333-2 .58s-.72 1.0066667-.72 1.86v7h3.16v-6.6h1.8v6.6c0 .24-.0333333.4466667-.1.62s-.1533333.3533333-.26.54l-3.92 6.56c-.16.24-.28.4533333-.36.64s-.1466667.3733333-.2.56-.0866667.4-.1.64-.02.5333333-.02.88v9.24zm-1.4-1.32h-5.4v-7.92c0-.4533333.0466667-.84.14-1.16s.26-.6666667.5-1.04l4.04-6.76c.1333333-.2133333.2266667-.4533333.28-.72s.08-.56.08-.88v-6.36c0-.4533333-.0866667-.7733333-.26-.96s-.4866667-.28-.94-.28h-2.2c-.4533333 0-.7666667.1-.94.3s-.26.5266667-.26.98v5.24h-.4v-5.24c0-.6133333.1133333-1.0466667.34-1.3s.6466667-.38 1.26-.38h2.2c.6133333 0 1.0333333.12 1.26.36s.34.6666667.34 1.28v6.4c0 .2933333-.02.5866667-.06.88s-.1266667.5466667-.26.76l-4.16 6.92c-.2133333.3466667-.36.66-.44.94s-.12.62-.12 1.02v7.52h4.6v-6.52h.4z" fill="#f7e8a3" fill-rule="nonzero"/></g><g opacity=".92" transform="translate(325 173)"><circle cx="25" cy="25" fill="#141414" r="24" stroke="#fbd078" stroke-width="2"/><path d="m24.12 39v-9.44h-3.16v6.6h-1.8v-6.6c0-.24.0266667-.44.08-.6s.1466667-.3466667.28-.56l4.16-6.96c.2133333-.3733333.34-.6933333.38-.96s.06-.56.06-.88v-7.28c0-.8533333-.24-1.4733333-.72-1.86s-1.1466667-.58-2-.58h-2.68c-.8533333 0-1.52.1933333-2 .58s-.72 1.0066667-.72 1.86v7h3.16v-6.6h1.8v6.6c0 .24-.0333333.4466667-.1.62s-.1533333.3533333-.26.54l-3.92 6.56c-.16.24-.28.4533333-.36.64s-.1466667.3733333-.2.56-.0866667.4-.1.64-.02.5333333-.02.88v9.24zm-1.4-1.32h-5.4v-7.92c0-.4533333.0466667-.84.14-1.16s.26-.6666667.5-1.04l4.04-6.76c.1333333-.2133333.2266667-.4533333.28-.72s.08-.56.08-.88v-6.36c0-.4533333-.0866667-.7733333-.26-.96s-.4866667-.28-.94-.28h-2.2c-.4533333 0-.7666667.1-.94.3s-.26.5266667-.26.98v5.24h-.4v-5.24c0-.6133333.1133333-1.0466667.34-1.3s.6466667-.38 1.26-.38h2.2c.6133333 0 1.0333333.12 1.26.36s.34.6666667.34 1.28v6.4c0 .2933333-.02.5866667-.06.88s-.1266667.5466667-.26.76l-4.16 6.92c-.2133333.3466667-.36.66-.44.94s-.12.62-.12 1.02v7.52h4.6v-6.52h.4zm9.12 1.32c.8533333 0 1.52-.2533333 2-.76s.72-1.16.72-1.96v-23.68c0-.8533333-.24-1.52-.72-2s-1.1466667-.72-2-.72h-2.8c-.8533333 0-1.52.24-2 .72s-.72 1.1466667-.72 2v11.92c0 1.6533333.8266667 2.48 2.48 2.48h2.6v9.16h-1.92v-6.6h-3.16v6.72c0 .8.24 1.4533333.72 1.96s1.1466667.76 2 .76zm-.24-1.32h-2.32c-.6133333 0-1.0333333-.1266667-1.26-.38s-.34-.6866667-.34-1.3v-5.24h.4v5.24c0 .4533333.0866667.78.26.98s.4866667.3.94.3h2.32c.4533333 0 .7666667-.0933333.94-.28s.26-.5066667.26-.96v-10.28h-3.52c-.56 0-.96-.12-1.2-.36s-.36-.64-.36-1.2v-11.44c0-.6133333.1133333-1.0466667.34-1.3s.6466667-.38 1.26-.38h2.28c.6133333 0 1.0333333.12 1.26.36s.34.6666667.34 1.28v23.32c0 .6133333-.1133333 1.04-.34 1.28s-.6466667.36-1.26.36zm1.2-12.32v-12.64c0-.4533333-.0866667-.7733333-.26-.96s-.4866667-.28-.94-.28h-2.28c-.4533333 0-.7666667.1-.94.3s-.26.5266667-.26.98v11.44c0 .7733333.3866667 1.16 1.16 1.16zm-1.4-1.2h-1.92v-11.44h1.92z" fill="#f7e8a3" fill-rule="nonzero"/></g><g opacity=".92" transform="translate(383 272)"><circle cx="25" cy="25" fill="#141414" r="24" stroke="#fbd078" stroke-width="2"/><path d="m25.72 39c.8533333 0 1.52-.2533333 2-.76s.72-1.16.72-1.96v-23.68c0-.8533333-.24-1.52-.72-2s-1.1466667-.72-2-.72h-2.8c-.8533333 0-1.52.24-2 .72s-.72 1.1466667-.72 2v11.92c0 1.6533333.8266667 2.48 2.48 2.48h2.6v9.16h-1.92v-6.6h-3.16v6.72c0 .8.24 1.4533333.72 1.96s1.1466667.76 2 .76zm-.24-1.32h-2.32c-.6133333 0-1.0333333-.1266667-1.26-.38s-.34-.6866667-.34-1.3v-5.24h.4v5.24c0 .4533333.0866667.78.26.98s.4866667.3.94.3h2.32c.4533333 0 .7666667-.0933333.94-.28s.26-.5066667.26-.96v-10.28h-3.52c-.56 0-.96-.12-1.2-.36s-.36-.64-.36-1.2v-11.44c0-.6133333.1133333-1.0466667.34-1.3s.6466667-.38 1.26-.38h2.28c.6133333 0 1.0333333.12 1.26.36s.34.6666667.34 1.28v23.32c0 .6133333-.1133333 1.04-.34 1.28s-.6466667.36-1.26.36zm1.2-12.32v-12.64c0-.4533333-.0866667-.7733333-.26-.96s-.4866667-.28-.94-.28h-2.28c-.4533333 0-.7666667.1-.94.3s-.26.5266667-.26.98v11.44c0 .7733333.3866667 1.16 1.16 1.16zm-1.4-1.2h-1.92v-11.44h1.92z" fill="#f7e8a3" fill-rule="nonzero"/></g><g opacity=".92" transform="translate(361 373)"><circle cx="25" cy="25" fill="#141414" r="24" stroke="#fbd078" stroke-width="2"/><path d="m22.24 39v-29.12h-4.64v2.84h1.48v26.28zm-1.4-1.2h-.4v-26.28h-1.64v-.4h2.04zm9.2 1.2c.8266667 0 1.4866667-.24 1.98-.72s.74-1.1466667.74-2v-23.68c0-.8-.2466667-1.4533333-.74-1.96s-1.1533333-.76-1.98-.76h-2.68c-.8266667 0-1.4866667.2533333-1.98.76s-.74 1.16-.74 1.96v23.68c0 .8533333.2466667 1.52.74 2s1.1533333.72 1.98.72zm-.2-1.2h-2.24c-.6133333 0-1.0333333-.12-1.26-.36s-.34-.6666667-.34-1.28v-23.4c0-.6133333.1133333-1.04.34-1.28s.6466667-.36 1.26-.36h2.24c.6133333 0 1.0333333.1266667 1.26.38s.34.6866667.34 1.3v23.32c0 .6133333-.1133333 1.0466667-.34 1.3s-.6466667.38-1.26.38zm0-.4c.4533333 0 .7666667-.1.94-.3s.26-.5266667.26-.98v-23.32c0-.4533333-.0866667-.78-.26-.98s-.4866667-.3-.94-.3h-2.24c-.4533333 0-.7666667.0933333-.94.28s-.26.5066667-.26.96v23.4c0 .4533333.0866667.7733333.26.96s.4866667.28.94.28zm-.2-1.24h-1.84v-23.44h1.84z" fill="#f7e8a3" fill-rule="nonzero"/></g><g opacity=".92" transform="translate(284 333)"><circle cx="25" cy="25" fill="#141414" r="24" stroke="#fbd078" stroke-width="2"/><path d="m21.16 39 3.76-29.12h-7.32v2.84h3.64l-3.4 26.28zm-1.32-1.2h-.4l3.36-26.28h-4v-.4h4.48zm9.84 1.2 3.76-29.12h-7.32v2.84h3.64l-3.4 26.28zm-1.32-1.2h-.4l3.36-26.28h-4v-.4h4.48z" fill="#f7e8a3" fill-rule="nonzero"/></g><g opacity=".92" transform="translate(125 260)"><circle cx="25" cy="25" fill="#434343" r="24" stroke="#fbd078" stroke-width="2"/><path d="m21.52 39v-29.12h-3.2v29.12zm-1.4-1.2h-.4v-26.72h.4zm7.08 1.2v-13.16h1.88v13.16h3.16v-26.52c0-.72-.2533333-1.3333333-.76-1.84s-1.12-.76-1.84-.76h-3c-.72 0-1.3333333.2533333-1.84.76s-.76 1.12-.76 1.84v26.52zm-1.4-1.2h-.4v-25.04c0-.6133333.1133333-1.04.34-1.28s.6466667-.36 1.26-.36h2.24c.6133333 0 1.0333333.1266667 1.26.38s.34.6866667.34 1.3v25h-.4v-13.2h-4.64zm4.64-13.6v-11.4c0-.4533333-.08-.78-.24-.98s-.4666667-.3-.92-.3h-2.32c-.4533333 0-.76.0933333-.92.28s-.24.5066667-.24.96v11.44zm-1.36-1.24h-1.88v-10.24h1.88z" fill="#f7e8a3" fill-rule="nonzero"/></g><g opacity=".92" transform="translate(143 358)"><circle cx="25" cy="25" fill="#434343" r="24" stroke="#fbd078" stroke-width="2"/><path d="m21.52 39v-29.12h-3.2v29.12zm-1.4-1.2h-.4v-26.72h.4zm7.08 1.2v-13.16h1.88v13.16h3.16v-26.52c0-.72-.2533333-1.3333333-.76-1.84s-1.12-.76-1.84-.76h-3c-.72 0-1.3333333.2533333-1.84.76s-.76 1.12-.76 1.84v26.52zm-1.4-1.2h-.4v-25.04c0-.6133333.1133333-1.04.34-1.28s.6466667-.36 1.26-.36h2.24c.6133333 0 1.0333333.1266667 1.26.38s.34.6866667.34 1.3v25h-.4v-13.2h-4.64zm4.64-13.6v-11.4c0-.4533333-.08-.78-.24-.98s-.4666667-.3-.92-.3h-2.32c-.4533333 0-.76.0933333-.92.28s-.24.5066667-.24.96v11.44zm-1.36-1.24h-1.88v-10.24h1.88z" fill="#f7e8a3" fill-rule="nonzero"/></g><g opacity=".92" transform="translate(193 432)"><circle cx="25" cy="25" fill="#434343" r="24" stroke="#fbd078" stroke-width="2"/><path d="m21.52 39v-29.12h-3.2v29.12zm-1.4-1.2h-.4v-26.72h.4zm7.08 1.2v-13.16h1.88v13.16h3.16v-26.52c0-.72-.2533333-1.3333333-.76-1.84s-1.12-.76-1.84-.76h-3c-.72 0-1.3333333.2533333-1.84.76s-.76 1.12-.76 1.84v26.52zm-1.4-1.2h-.4v-25.04c0-.6133333.1133333-1.04.34-1.28s.6466667-.36 1.26-.36h2.24c.6133333 0 1.0333333.1266667 1.26.38s.34.6866667.34 1.3v25h-.4v-13.2h-4.64zm4.64-13.6v-11.4c0-.4533333-.08-.78-.24-.98s-.4666667-.3-.92-.3h-2.32c-.4533333 0-.76.0933333-.92.28s-.24.5066667-.24.96v11.44zm-1.36-1.24h-1.88v-10.24h1.88z" fill="#f7e8a3" fill-rule="nonzero"/></g><g transform="translate(749 205)"><circle cx="25" cy="25" fill="#141414" r="24" stroke="#da3947" stroke-width="2"/><path d="m20.72 39c.8533333 0 1.52-.24 2-.72s.72-1.1466667.72-2v-11.92c0-1.6533333-.8266667-2.48-2.48-2.48h-2.6v-9.16h1.92v6.6h3.16v-6.72c0-.8-.24-1.4533333-.72-1.96s-1.1466667-.76-2-.76h-2.8c-.8533333 0-1.52.2533333-2 .76s-.72 1.16-.72 1.96v23.68c0 .8533333.24 1.52.72 2s1.1466667.72 2 .72zm-.28-1.2h-2.28c-.6133333 0-1.0333333-.12-1.26-.36s-.34-.6666667-.34-1.28v-23.32c0-.6133333.1133333-1.04.34-1.28s.6466667-.36 1.26-.36h2.32c.6133333 0 1.0333333.1266667 1.26.38s.34.6866667.34 1.3v5.24h-.4v-5.24c0-.4533333-.0866667-.78-.26-.98s-.4866667-.3-.94-.3h-2.32c-.4533333 0-.7666667.0933333-.94.28s-.26.5066667-.26.96v10.28h3.52c.56 0 .96.12 1.2.36s.36.64.36 1.2v11.44c0 .6133333-.1133333 1.0466667-.34 1.3s-.6466667.38-1.26.38zm0-.4c.4533333 0 .7666667-.1.94-.3s.26-.5266667.26-.98v-11.44c0-.7733333-.3866667-1.16-1.16-1.16h-3.52v12.64c0 .4533333.0866667.7733333.26.96s.4866667.28.94.28zm-.16-1.24h-1.92v-11.44h1.92zm11.08 2.84c.8533333 0 1.52-.2533333 2-.76s.72-1.16.72-1.96v-23.68c0-.8533333-.24-1.52-.72-2s-1.1466667-.72-2-.72h-2.8c-.8533333 0-1.52.24-2 .72s-.72 1.1466667-.72 2v11.92c0 1.6533333.8266667 2.48 2.48 2.48h2.6v9.16h-1.92v-6.6h-3.16v6.72c0 .8.24 1.4533333.72 1.96s1.1466667.76 2 .76zm-.24-1.32h-2.32c-.6133333 0-1.0333333-.1266667-1.26-.38s-.34-.6866667-.34-1.3v-5.24h.4v5.24c0 .4533333.0866667.78.26.98s.4866667.3.94.3h2.32c.4533333 0 .7666667-.0933333.94-.28s.26-.5066667.26-.96v-10.28h-3.52c-.56 0-.96-.12-1.2-.36s-.36-.64-.36-1.2v-11.44c0-.6133333.1133333-1.0466667.34-1.3s.6466667-.38 1.26-.38h2.28c.6133333 0 1.0333333.12 1.26.36s.34.6666667.34 1.28v23.32c0 .6133333-.1133333 1.04-.34 1.28s-.6466667.36-1.26.36zm1.2-12.32v-12.64c0-.4533333-.0866667-.7733333-.26-.96s-.4866667-.28-.94-.28h-2.28c-.4533333 0-.7666667.1-.94.3s-.26.5266667-.26.98v11.44c0 .7733333.3866667 1.16 1.16 1.16zm-1.4-1.2h-1.92v-11.44h1.92z" fill="#da3947" fill-rule="nonzero"/></g><g opacity=".92" transform="translate(697 358)"><circle cx="25" cy="25" fill="#141414" r="24" stroke="#da3947" stroke-width="2"/><path d="m25.16 39 3.76-29.12h-7.32v2.84h3.64l-3.4 26.28zm-1.32-1.2h-.4l3.36-26.28h-4v-.4h4.48z" fill="#da3947" fill-rule="nonzero"/></g><g opacity=".92" transform="translate(531 235)"><circle cx="25" cy="25" fill="#141414" r="24" stroke="#da3947" stroke-width="2"/><path d="m21.64 39c.6933333 0 1.2933333-.2533333 1.8-.76s.76-1.12.76-1.84v-9.8c0-.1866667-.0133333-.4-.04-.64s-.1-.4666667-.22-.68-.2866667-.4-.5-.56-.4933333-.2666667-.84-.32c.3466667-.0533333.6266667-.16.84-.32s.38-.3466667.5-.56.1933333-.4333333.22-.66.04-.4466667.04-.66v-9.72c0-.72-.2533333-1.3333333-.76-1.84s-1.1066667-.76-1.8-.76h-3.08c-.6933333 0-1.2933333.2533333-1.8.76s-.76 1.12-.76 1.84v6.84h3.16v-6.6h1.88v10.24h-3.2v2.88h3.2v10.32h-1.88v-6.6h-3.16v6.84c0 .72.2533333 1.3333333.76 1.84s1.1066667.76 1.8.76zm-.44-1.32h-2.24c-.6133333 0-1.0333333-.1266667-1.26-.38s-.34-.6866667-.34-1.3v-5.24h.4v5.24c0 .4533333.0866667.78.26.98s.4866667.3.94.3h2.24c.4533333 0 .7666667-.1.94-.3s.26-.5266667.26-.98v-9.56c0-.16-.0266667-.34-.08-.54s-.1533333-.4-.3-.6-.3533333-.3666667-.62-.5-.6-.2-1-.2h-1.36v-.4h1.36c.4 0 .7333333-.0666667 1-.2s.4733333-.3.62-.5.2466667-.4.3-.6.08-.38.08-.54v-9.52c0-.4533333-.0866667-.7733333-.26-.96s-.4866667-.28-.94-.28h-2.24c-.4533333 0-.7666667.1-.94.3s-.26.5266667-.26.98v5.24h-.4v-5.24c0-.6133333.1133333-1.0466667.34-1.3s.6466667-.38 1.26-.38h2.24c.6133333 0 1.0333333.12 1.26.36s.34.6666667.34 1.28v9.64c0 .2933333-.1066667.6533333-.32 1.08s-.5866667.7066667-1.12.84c.5333333.1333333.9066667.42 1.12.86s.32.8066667.32 1.1v9.64c0 .6133333-.1133333 1.0466667-.34 1.3s-.6466667.38-1.26.38zm10.8 1.32c.8266667 0 1.4866667-.24 1.98-.72s.74-1.1466667.74-2v-23.68c0-.8-.2466667-1.4533333-.74-1.96s-1.1533333-.76-1.98-.76h-2.68c-.8266667 0-1.4866667.2533333-1.98.76s-.74 1.16-.74 1.96v23.68c0 .8533333.2466667 1.52.74 2s1.1533333.72 1.98.72zm-.2-1.2h-2.24c-.6133333 0-1.0333333-.12-1.26-.36s-.34-.6666667-.34-1.28v-23.4c0-.6133333.1133333-1.04.34-1.28s.6466667-.36 1.26-.36h2.24c.6133333 0 1.0333333.1266667 1.26.38s.34.6866667.34 1.3v23.32c0 .6133333-.1133333 1.0466667-.34 1.3s-.6466667.38-1.26.38zm0-.4c.4533333 0 .7666667-.1.94-.3s.26-.5266667.26-.98v-23.32c0-.4533333-.0866667-.78-.26-.98s-.4866667-.3-.94-.3h-2.24c-.4533333 0-.7666667.0933333-.94.28s-.26.5066667-.26.96v23.4c0 .4533333.0866667.7733333.26.96s.4866667.28.94.28zm-.2-1.24h-1.84v-23.44h1.84z" fill="#da3947" fill-rule="nonzero"/></g><g opacity=".92" transform="translate(566 167)"><circle cx="25" cy="25" fill="#141414" r="24" stroke="#da3947" stroke-width="2"/><path d="m29.12 39v-9.44h-3.16v6.6h-1.8v-6.6c0-.24.0266667-.44.08-.6s.1466667-.3466667.28-.56l4.16-6.96c.2133333-.3733333.34-.6933333.38-.96s.06-.56.06-.88v-7.28c0-.8533333-.24-1.4733333-.72-1.86s-1.1466667-.58-2-.58h-2.68c-.8533333 0-1.52.1933333-2 .58s-.72 1.0066667-.72 1.86v7h3.16v-6.6h1.8v6.6c0 .24-.0333333.4466667-.1.62s-.1533333.3533333-.26.54l-3.92 6.56c-.16.24-.28.4533333-.36.64s-.1466667.3733333-.2.56-.0866667.4-.1.64-.02.5333333-.02.88v9.24zm-1.4-1.32h-5.4v-7.92c0-.4533333.0466667-.84.14-1.16s.26-.6666667.5-1.04l4.04-6.76c.1333333-.2133333.2266667-.4533333.28-.72s.08-.56.08-.88v-6.36c0-.4533333-.0866667-.7733333-.26-.96s-.4866667-.28-.94-.28h-2.2c-.4533333 0-.7666667.1-.94.3s-.26.5266667-.26.98v5.24h-.4v-5.24c0-.6133333.1133333-1.0466667.34-1.3s.6466667-.38 1.26-.38h2.2c.6133333 0 1.0333333.12 1.26.36s.34.6666667.34 1.28v6.4c0 .2933333-.02.5866667-.06.88s-.1266667.5466667-.26.76l-4.16 6.92c-.2133333.3466667-.36.66-.44.94s-.12.62-.12 1.02v7.52h4.6v-6.52h.4z" fill="#da3947" fill-rule="nonzero"/></g><g opacity=".92" transform="translate(439 155)"><circle cx="25" cy="25" fill="#141414" r="24" stroke="#da3947" stroke-width="2"/><path d="m19.16 39 3.76-29.12h-7.32v2.84h3.64l-3.4 26.28zm-1.32-1.2h-.4l3.36-26.28h-4v-.4h4.48zm12.56 1.2c.6933333 0 1.2933333-.2533333 1.8-.76s.76-1.12.76-1.84v-9.76c0-.1866667-.0133333-.4-.04-.64s-.1-.4666667-.22-.68-.2933333-.4-.52-.56-.54-.2666667-.94-.32c.4-.0533333.7133333-.16.94-.32s.4-.3466667.52-.56.1933333-.4333333.22-.66.04-.4466667.04-.66v-9.76c0-.72-.2533333-1.3333333-.76-1.84s-1.1066667-.76-1.8-.76h-3.12c-.6933333 0-1.2933333.2533333-1.8.76s-.76 1.12-.76 1.84v9.76c0 .2133333.0133333.4333333.04.66s.1.4466667.22.66.2933333.4.52.56.54.2666667.94.32c-.4.0533333-.7133333.16-.94.32s-.4.3466667-.52.56-.1933333.44-.22.68-.04.4533333-.04.64v9.76c0 .72.2533333 1.3333333.76 1.84s1.1066667.76 1.8.76zm-.44-1.32h-2.28c-.6133333 0-1.0333333-.1266667-1.26-.38s-.34-.6866667-.34-1.3v-9.56c0-.2933333.1066667-.6666667.32-1.12s.5866667-.7466667 1.12-.88c-.5333333-.1333333-.9066667-.4133333-1.12-.84s-.32-.7866667-.32-1.08v-9.64c0-.6133333.1133333-1.0466667.34-1.3s.6466667-.38 1.26-.38h2.28c.6133333 0 1.0333333.12 1.26.36s.34.6666667.34 1.28v9.68c0 .2933333-.1066667.6533333-.32 1.08s-.5866667.7066667-1.12.84c.5333333.1333333.9066667.4266667 1.12.88s.32.8266667.32 1.12v9.56c0 .6133333-.1133333 1.0466667-.34 1.3s-.6466667.38-1.26.38zm-.8-13.4c.4 0 .7333333-.0666667 1-.2s.4733333-.3.62-.5.2466667-.4.3-.6.08-.38.08-.54v-9.6c0-.4533333-.0866667-.7733333-.26-.96s-.4866667-.28-.94-.28h-2.28c-.4533333 0-.7666667.1-.94.3s-.26.5266667-.26.98v9.56c0 .16.0266667.34.08.54s.1533333.4.3.6.3533333.3666667.62.5.6.2 1 .2zm.64-1.32h-1.92v-10.24h1.92zm.16 14.32c.4533333 0 .7666667-.1.94-.3s.26-.5266667.26-.98v-9.48c0-.16-.0266667-.34-.08-.54s-.1533333-.4-.3-.6-.3533333-.3666667-.62-.5-.6-.2-1-.2h-.68c-.4 0-.7333333.0666667-1 .2s-.4733333.3-.62.5-.2466667.4-.3.6-.08.38-.08.54v9.48c0 .4533333.0866667.78.26.98s.4866667.3.94.3zm-.16-1.12h-1.92v-10.24h1.92z" fill="#da3947" fill-rule="nonzero"/></g><g opacity=".92" transform="translate(434 260)"><circle cx="25" cy="25" fill="#141414" r="24" stroke="#da3947" stroke-width="2"/><path d="m26.72 39c.8533333 0 1.52-.2533333 2-.76s.72-1.16.72-1.96v-23.68c0-.8533333-.24-1.52-.72-2s-1.1466667-.72-2-.72h-2.8c-.8533333 0-1.52.24-2 .72s-.72 1.1466667-.72 2v11.92c0 1.6533333.8266667 2.48 2.48 2.48h2.6v9.16h-1.92v-6.6h-3.16v6.72c0 .8.24 1.4533333.72 1.96s1.1466667.76 2 .76zm-.24-1.32h-2.32c-.6133333 0-1.0333333-.1266667-1.26-.38s-.34-.6866667-.34-1.3v-5.24h.4v5.24c0 .4533333.0866667.78.26.98s.4866667.3.94.3h2.32c.4533333 0 .7666667-.0933333.94-.28s.26-.5066667.26-.96v-10.28h-3.52c-.56 0-.96-.12-1.2-.36s-.36-.64-.36-1.2v-11.44c0-.6133333.1133333-1.0466667.34-1.3s.6466667-.38 1.26-.38h2.28c.6133333 0 1.0333333.12 1.26.36s.34.6666667.34 1.28v23.32c0 .6133333-.1133333 1.04-.34 1.28s-.6466667.36-1.26.36zm1.2-12.32v-12.64c0-.4533333-.0866667-.7733333-.26-.96s-.4866667-.28-.94-.28h-2.28c-.4533333 0-.7666667.1-.94.3s-.26.5266667-.26.98v11.44c0 .7733333.3866667 1.16 1.16 1.16zm-1.4-1.2h-1.92v-11.44h1.92z" fill="#da3947" fill-rule="nonzero" opacity=".8"/></g><g opacity=".92" transform="translate(493 348)"><circle cx="25" cy="25" fill="#141414" r="24" stroke="#da3947" stroke-width="2"/><path d="m22.24 39v-29.12h-4.64v2.84h1.48v26.28zm-1.4-1.2h-.4v-26.28h-1.64v-.4h2.04zm9.2 1.2c.8266667 0 1.4866667-.24 1.98-.72s.74-1.1466667.74-2v-23.68c0-.8-.2466667-1.4533333-.74-1.96s-1.1533333-.76-1.98-.76h-2.68c-.8266667 0-1.4866667.2533333-1.98.76s-.74 1.16-.74 1.96v23.68c0 .8533333.2466667 1.52.74 2s1.1533333.72 1.98.72zm-.2-1.2h-2.24c-.6133333 0-1.0333333-.12-1.26-.36s-.34-.6666667-.34-1.28v-23.4c0-.6133333.1133333-1.04.34-1.28s.6466667-.36 1.26-.36h2.24c.6133333 0 1.0333333.1266667 1.26.38s.34.6866667.34 1.3v23.32c0 .6133333-.1133333 1.0466667-.34 1.3s-.6466667.38-1.26.38zm0-.4c.4533333 0 .7666667-.1.94-.3s.26-.5266667.26-.98v-23.32c0-.4533333-.0866667-.78-.26-.98s-.4866667-.3-.94-.3h-2.24c-.4533333 0-.7666667.0933333-.94.28s-.26.5066667-.26.96v23.4c0 .4533333.0866667.7733333.26.96s.4866667.28.94.28zm-.2-1.24h-1.84v-23.44h1.84z" fill="#da3947" fill-rule="nonzero"/></g><g opacity=".92" transform="translate(591 280)"><circle cx="25" cy="25" fill="#141414" r="24" stroke="#da3947" stroke-width="2"/><path d="m20.72 39c.8533333 0 1.52-.2533333 2-.76s.72-1.16.72-1.96v-23.68c0-.8533333-.24-1.52-.72-2s-1.1466667-.72-2-.72h-2.8c-.8533333 0-1.52.24-2 .72s-.72 1.1466667-.72 2v11.92c0 1.6533333.8266667 2.48 2.48 2.48h2.6v9.16h-1.92v-6.6h-3.16v6.72c0 .8.24 1.4533333.72 1.96s1.1466667.76 2 .76zm-.24-1.32h-2.32c-.6133333 0-1.0333333-.1266667-1.26-.38s-.34-.6866667-.34-1.3v-5.24h.4v5.24c0 .4533333.0866667.78.26.98s.4866667.3.94.3h2.32c.4533333 0 .7666667-.0933333.94-.28s.26-.5066667.26-.96v-10.28h-3.52c-.56 0-.96-.12-1.2-.36s-.36-.64-.36-1.2v-11.44c0-.6133333.1133333-1.0466667.34-1.3s.6466667-.38 1.26-.38h2.28c.6133333 0 1.0333333.12 1.26.36s.34.6666667.34 1.28v23.32c0 .6133333-.1133333 1.04-.34 1.28s-.6466667.36-1.26.36zm1.2-12.32v-12.64c0-.4533333-.0866667-.7733333-.26-.96s-.4866667-.28-.94-.28h-2.28c-.4533333 0-.7666667.1-.94.3s-.26.5266667-.26.98v11.44c0 .7733333.3866667 1.16 1.16 1.16zm-1.4-1.2h-1.92v-11.44h1.92zm11 14.84c.6933333 0 1.2933333-.2533333 1.8-.76s.76-1.12.76-1.84v-9.8c0-.1866667-.0133333-.4-.04-.64s-.1-.4666667-.22-.68-.2866667-.4-.5-.56-.4933333-.2666667-.84-.32c.3466667-.0533333.6266667-.16.84-.32s.38-.3466667.5-.56.1933333-.4333333.22-.66.04-.4466667.04-.66v-9.72c0-.72-.2533333-1.3333333-.76-1.84s-1.1066667-.76-1.8-.76h-3.08c-.6933333 0-1.2933333.2533333-1.8.76s-.76 1.12-.76 1.84v6.84h3.16v-6.6h1.88v10.24h-3.2v2.88h3.2v10.32h-1.88v-6.6h-3.16v6.84c0 .72.2533333 1.3333333.76 1.84s1.1066667.76 1.8.76zm-.44-1.32h-2.24c-.6133333 0-1.0333333-.1266667-1.26-.38s-.34-.6866667-.34-1.3v-5.24h.4v5.24c0 .4533333.0866667.78.26.98s.4866667.3.94.3h2.24c.4533333 0 .7666667-.1.94-.3s.26-.5266667.26-.98v-9.56c0-.16-.0266667-.34-.08-.54s-.1533333-.4-.3-.6-.3533333-.3666667-.62-.5-.6-.2-1-.2h-1.36v-.4h1.36c.4 0 .7333333-.0666667 1-.2s.4733333-.3.62-.5.2466667-.4.3-.6.08-.38.08-.54v-9.52c0-.4533333-.0866667-.7733333-.26-.96s-.4866667-.28-.94-.28h-2.24c-.4533333 0-.7666667.1-.94.3s-.26.5266667-.26.98v5.24h-.4v-5.24c0-.6133333.1133333-1.0466667.34-1.3s.6466667-.38 1.26-.38h2.24c.6133333 0 1.0333333.12 1.26.36s.34.6666667.34 1.28v9.64c0 .2933333-.1066667.6533333-.32 1.08s-.5866667.7066667-1.12.84c.5333333.1333333.9066667.42 1.12.86s.32.8066667.32 1.1v9.64c0 .6133333-.1133333 1.0466667-.34 1.3s-.6466667.38-1.26.38z" fill="#da3947" fill-rule="nonzero"/></g><g opacity=".92" transform="translate(672 173)"><circle cx="25" cy="25" fill="#434343" r="24" stroke="#da3947" stroke-width="2"/><path d="m21.52 39v-29.12h-3.2v29.12zm-1.4-1.2h-.4v-26.72h.4zm7.08 1.2v-13.16h1.88v13.16h3.16v-26.52c0-.72-.2533333-1.3333333-.76-1.84s-1.12-.76-1.84-.76h-3c-.72 0-1.3333333.2533333-1.84.76s-.76 1.12-.76 1.84v26.52zm-1.4-1.2h-.4v-25.04c0-.6133333.1133333-1.04.34-1.28s.6466667-.36 1.26-.36h2.24c.6133333 0 1.0333333.1266667 1.26.38s.34.6866667.34 1.3v25h-.4v-13.2h-4.64zm4.64-13.6v-11.4c0-.4533333-.08-.78-.24-.98s-.4666667-.3-.92-.3h-2.32c-.4533333 0-.76.0933333-.92.28s-.24.5066667-.24.96v11.44zm-1.36-1.24h-1.88v-10.24h1.88z" fill="#da3947" fill-rule="nonzero"/></g><g opacity=".92" transform="translate(689 255)"><circle cx="25" cy="25" fill="#434343" r="24" stroke="#da3947" stroke-width="2"/><path d="m21.52 39v-29.12h-3.2v29.12zm-1.4-1.2h-.4v-26.72h.4zm7.08 1.2v-13.16h1.88v13.16h3.16v-26.52c0-.72-.2533333-1.3333333-.76-1.84s-1.12-.76-1.84-.76h-3c-.72 0-1.3333333.2533333-1.84.76s-.76 1.12-.76 1.84v26.52zm-1.4-1.2h-.4v-25.04c0-.6133333.1133333-1.04.34-1.28s.6466667-.36 1.26-.36h2.24c.6133333 0 1.0333333.1266667 1.26.38s.34.6866667.34 1.3v25h-.4v-13.2h-4.64zm4.64-13.6v-11.4c0-.4533333-.08-.78-.24-.98s-.4666667-.3-.92-.3h-2.32c-.4533333 0-.76.0933333-.92.28s-.24.5066667-.24.96v11.44zm-1.36-1.24h-1.88v-10.24h1.88z" fill="#da3947" fill-rule="nonzero"/></g><g opacity=".92" transform="translate(622 91)"><circle cx="25" cy="25" fill="#434343" r="24" stroke="#da3947" stroke-width="2"/><path d="m21.52 39v-29.12h-3.2v29.12zm-1.4-1.2h-.4v-26.72h.4zm7.08 1.2v-13.16h1.88v13.16h3.16v-26.52c0-.72-.2533333-1.3333333-.76-1.84s-1.12-.76-1.84-.76h-3c-.72 0-1.3333333.2533333-1.84.76s-.76 1.12-.76 1.84v26.52zm-1.4-1.2h-.4v-25.04c0-.6133333.1133333-1.04.34-1.28s.6466667-.36 1.26-.36h2.24c.6133333 0 1.0333333.1266667 1.26.38s.34.6866667.34 1.3v25h-.4v-13.2h-4.64zm4.64-13.6v-11.4c0-.4533333-.08-.78-.24-.98s-.4666667-.3-.92-.3h-2.32c-.4533333 0-.76.0933333-.92.28s-.24.5066667-.24.96v11.44zm-1.36-1.24h-1.88v-10.24h1.88z" fill="#da3947" fill-rule="nonzero"/></g></g></svg>